<svg width="345" height="107" viewBox="0 0 345 107" fill="none" xmlns="http://www.w3.org/2000/svg">
<g clip-path="url(#clip0_1979_17356)">
<path d="M157.287 34.2554V59.5389C157.287 62.135 156.721 64.3924 155.702 66.4242C154.683 68.456 153.098 70.036 151.06 71.1649C149.022 72.2936 146.531 72.8579 143.587 72.8579C140.643 72.8579 138.152 72.2936 136.114 71.1649C134.076 70.0362 132.604 68.456 131.585 66.4242C130.566 64.3925 130 62.135 130 59.4261V34.1426H137.473V57.2815C137.473 60.5548 137.926 62.9251 138.831 64.5054C139.737 66.0856 141.322 66.8757 143.587 66.8757C145.851 66.8757 147.436 66.0856 148.342 64.5054C149.248 62.9251 149.701 60.442 149.701 57.2815V34.1426H157.287L157.287 34.2554Z" fill="white"/>
<path d="M186.045 45.4302C186.045 47.2362 185.706 48.8164 184.913 50.1709C184.234 51.5254 183.215 52.654 181.969 53.6699C180.724 54.5729 179.365 55.363 177.78 55.8145L188.196 72.0681H179.591L170.647 57.056H167.137V72.0681H159.664V34.2559H170.873C175.855 34.2559 179.592 35.1588 182.196 36.9648C184.8 38.7708 186.045 41.5925 186.045 45.4302ZM178.233 45.4302C178.233 43.3986 177.667 41.9311 176.421 41.0282C175.289 40.1253 173.477 39.6737 171.1 39.6737H167.25V51.7511H171.326C173.591 51.7511 175.289 51.2996 176.421 50.2838C177.667 49.268 178.233 47.6877 178.233 45.5431V45.4303V45.4302Z" fill="white"/>
<path d="M234.679 34.2559L229.81 72.0681H221.545L218.261 44.5272L214.751 72.0681H206.373L201.844 34.2559H208.977L211.241 65.2958L214.864 38.6578H221.884L225.281 65.2958L228.112 34.2559H234.792H234.679Z" fill="white"/>
<path d="M260.012 34.2559V39.8995H251.973V66.5375H260.012V72.1811H236.461V66.5375H244.5V39.8995H236.461V34.2559H260.012Z" fill="white"/>
<path d="M269.457 39.7852V50.9595H283.27V56.4902H269.457V72.1795H261.984V34.3672H285.988L285.195 39.8979H269.457V39.7851L269.457 39.7852Z" fill="white"/>
<path d="M295.434 39.7865V50.1709H308.908V55.5888H295.434V66.5375H311.738V72.0681H287.961V34.2559H311.625L310.832 39.7865H295.434Z" fill="white"/>
<path d="M72.7173 11.4062L74.9059 13.0632C76.3072 14.124 109.275 39.2918 113.96 60.9619C116.947 74.3369 113.383 82.3624 109.867 86.7355C105.708 91.9082 99.24 94.8907 92.1142 94.9237V94.924H91.9608V94.9237C81.9517 94.8817 76.0183 90.2633 72.7178 84.8142C69.4171 90.2668 63.4827 94.8867 53.4742 94.9237L53.3208 94.9239V94.9236C46.185 94.886 39.724 91.904 35.5679 86.7355C32.0513 82.3624 28.4877 74.3369 31.48 60.9381C36.1598 39.2918 69.1276 14.124 70.529 13.0632L72.7175 11.4062H72.7173Z" fill="#FF0000"/>
</g>
<defs>
<clipPath id="clip0_1979_17356">
<rect width="345" height="107" fill="white"/>
</clipPath>
</defs>
</svg>
