<svg width="345" height="107" viewBox="0 0 345 107" fill="none" xmlns="http://www.w3.org/2000/svg">
<g clip-path="url(#clip0_245_252)">
<rect width="345" height="107" fill="black"/>
<path d="M157.292 34.2554V59.5389C157.292 62.135 156.726 64.3924 155.707 66.4242C154.688 68.456 153.102 70.036 151.064 71.1649C149.026 72.2936 146.535 72.8579 143.592 72.8579C140.648 72.8579 138.157 72.2936 136.119 71.1649C134.081 70.0362 132.609 68.456 131.59 66.4242C130.571 64.3925 130.005 62.135 130.005 59.4261V34.1426H137.478V57.2815C137.478 60.5548 137.931 62.9251 138.836 64.5054C139.742 66.0856 141.327 66.8757 143.592 66.8757C145.856 66.8757 147.441 66.0856 148.347 64.5054C149.253 62.9251 149.706 60.442 149.706 57.2815V34.1426H157.292L157.292 34.2554Z" fill="white"/>
<path d="M186.051 45.4297C186.051 47.2357 185.711 48.8159 184.919 50.1704C184.24 51.5249 183.221 52.6536 181.975 53.6695C180.73 54.5724 179.371 55.3625 177.786 55.814L188.202 72.0676H179.597L170.653 57.0555H167.143V72.0676H159.67V34.2554H170.879C175.861 34.2554 179.597 35.1583 182.202 36.9643C184.806 38.7703 186.051 41.5921 186.051 45.4297ZM178.239 45.4297C178.239 43.3981 177.673 41.9306 176.427 41.0277C175.295 40.1248 173.483 39.6732 171.106 39.6732H167.256V51.7506H171.332C173.596 51.7506 175.295 51.2991 176.427 50.2834C177.672 49.2675 178.239 47.6872 178.239 45.5426V45.4298V45.4297Z" fill="white"/>
<path d="M234.683 34.2554L229.814 72.0676H221.549L218.265 44.5268L214.755 72.0676H206.377L201.848 34.2554H208.981L211.245 65.2953L214.868 38.6573H221.888L225.285 65.2953L228.115 34.2554H234.796H234.683Z" fill="white"/>
<path d="M260.014 34.2554V39.899H251.975V66.537H260.014V72.1806H236.463V66.537H244.502V39.899H236.463V34.2554H260.014Z" fill="white"/>
<path d="M269.46 39.7862V50.9605H283.273V56.4912H269.46V72.1804H261.987V34.3682H285.991L285.198 39.8988H269.46V39.786L269.46 39.7862Z" fill="white"/>
<path d="M295.437 39.786V50.1704H308.91V55.5883H295.437V66.537H311.741V72.0676H287.964V34.2554H311.628L310.835 39.786H295.437Z" fill="white"/>
<path d="M72.7183 11.4067L74.9068 13.0637C76.3081 14.1245 109.276 39.2923 113.961 60.9624C116.948 74.3374 113.384 82.3629 109.868 86.736C105.709 91.9087 99.241 94.8912 92.1151 94.9242V94.9245H91.9618V94.9242C81.9527 94.8822 76.0193 90.2638 72.7188 84.8147C69.4181 90.2673 63.4837 94.8872 53.4751 94.9242L53.3218 94.9244V94.9241C46.186 94.8865 39.725 91.9045 35.5689 86.736C32.0523 82.3629 28.4887 74.3374 31.481 60.9386C36.1607 39.2923 69.1286 14.1245 70.5299 13.0637L72.7185 11.4067H72.7183Z" fill="#FF0000"/>
</g>
<defs>
<clipPath id="clip0_245_252">
<rect width="345" height="107" fill="white"/>
</clipPath>
</defs>
</svg>
